<svg width="99" height="99" viewBox="0 0 99 99" fill="none" xmlns="http://www.w3.org/2000/svg">
<g clip-path="url(#clip0)">
<path d="M49.5 2.0625C22.1512 2.0625 -1.52588e-05 23.8425 -1.52588e-05 50.7045C-1.52588e-05 72.1999 14.1817 90.4283 33.8456 96.855C36.3206 97.3129 37.2281 95.8073 37.2281 94.5161C37.2281 93.3611 37.1869 90.3004 37.1662 86.2455C23.397 89.1784 20.493 79.7198 20.493 79.7198C18.2407 74.1056 14.9861 72.6041 14.9861 72.6041C10.5022 69.5888 15.3326 69.6506 15.3326 69.6506C20.3032 69.9889 22.9144 74.6625 22.9144 74.6625C27.3281 82.0999 34.5015 79.9508 37.3312 78.7091C37.7767 75.5618 39.0514 73.4209 40.4662 72.204C29.4731 70.9871 17.919 66.8044 17.919 48.1676C17.919 42.8588 19.8371 38.5193 23.0134 35.1161C22.4565 33.8869 20.7859 28.941 23.4465 22.242C23.4465 22.242 27.5921 20.9385 37.059 27.2291C41.019 26.1484 45.2265 25.6121 49.434 25.5874C53.6415 25.6121 57.849 26.1484 61.809 27.2291C71.214 20.9385 75.3596 22.242 75.3596 22.242C78.0202 28.941 76.3496 33.8869 75.8546 35.1161C79.0102 38.5193 80.9284 42.8588 80.9284 48.1676C80.9284 66.8539 69.3577 70.9665 58.344 72.1628C60.0765 73.623 61.6852 76.6054 61.6852 81.1635C61.6852 87.6728 61.6234 92.9033 61.6234 94.4831C61.6234 95.7578 62.4896 97.2799 65.0265 96.7931C84.8306 90.4076 99 72.1669 99 50.7045C99 23.8425 76.8364 2.0625 49.5 2.0625Z" fill="#434458"/>
</g>
<defs>
<clipPath id="clip0">
<rect width="99" height="99" fill="white"/>
</clipPath>
</defs>
</svg>
