<svg width="34" height="34" viewBox="0 0 34 34" fill="none" xmlns="http://www.w3.org/2000/svg">
<path d="M22.0668 9.04565H11.9332C10.3158 9.04565 8.99982 10.3616 8.99982 11.9791V22.1126C8.99982 23.7301 10.3158 25.0464 11.9332 25.0464H22.0668C23.6842 25.0464 25.0006 23.7304 25.0006 22.1126V11.9791C25.0006 10.3616 23.6846 9.04565 22.0668 9.04565ZM17 22.3134C14.0958 22.3134 11.7328 19.9504 11.7328 17.0458C11.7328 14.1416 14.0958 11.7787 17 11.7787C19.9046 11.7787 22.2675 14.1416 22.2675 17.0458C22.2675 19.9501 19.9042 22.3134 17 22.3134ZM22.4369 12.8677C21.7493 12.8677 21.1902 12.3086 21.1902 11.6215C21.1902 10.9343 21.7493 10.3752 22.4369 10.3752C23.124 10.3752 23.6831 10.9343 23.6831 11.6215C23.6831 12.3086 23.124 12.8677 22.4369 12.8677Z" fill="#B1E7E7"/>
<path d="M17 14.0045C15.3235 14.0045 13.9583 15.3689 13.9583 17.0454C13.9583 18.7227 15.3235 20.0875 17 20.0875C18.6773 20.0875 20.0414 18.7227 20.0414 17.0454C20.0414 15.3693 18.6769 14.0045 17 14.0045Z" fill="#B1E7E7"/>
<path d="M17 0C7.61153 0 0 7.61153 0 17C0 26.3885 7.61153 34 17 34C26.3885 34 34 26.3885 34 17C34 7.61153 26.3885 0 17 0ZM27.226 22.1126C27.226 24.9578 24.9119 27.2718 22.0668 27.2718H11.9332C9.08846 27.2718 6.77401 24.9578 6.77401 22.1126V11.9791C6.77401 9.13429 9.08846 6.81985 11.9332 6.81985H22.0668C24.9119 6.81985 27.226 9.13429 27.226 11.9791V22.1126Z" fill="#B1E7E7"/>
</svg>
