<svg width="34" height="34" viewBox="0 0 34 34" fill="none" xmlns="http://www.w3.org/2000/svg">
<g clip-path="url(#clip0)">
<path d="M17 33.999C26.3888 33.999 34 26.3879 34 16.999C34 7.61018 26.3888 -0.000976562 17 -0.000976562C7.61116 -0.000976562 0 7.61018 0 16.999C0 26.3879 7.61116 33.999 17 33.999Z" fill="#B1E7E7"/>
<path d="M27.1573 18.3676V25.3764H23.0939V18.8374C23.0939 17.1955 22.5072 16.0742 21.0359 16.0742C19.9131 16.0742 19.2462 16.8291 18.9516 17.56C18.8446 17.8213 18.817 18.184 18.817 18.5504V25.3761H14.7533C14.7533 25.3761 14.8078 14.3011 14.7533 13.1547H18.8173V14.8866C18.8092 14.9002 18.7977 14.9136 18.7904 14.9266H18.8173V14.8866C19.3574 14.0557 20.3204 12.8678 22.4796 12.8678C25.153 12.8678 27.1573 14.6145 27.1573 18.3676ZM10.5022 7.26361C9.11215 7.26361 8.20273 8.17607 8.20273 9.3749C8.20273 10.5483 9.08579 11.4871 10.4489 11.4871H10.4752C11.8926 11.4871 12.7738 10.5483 12.7738 9.3749C12.7468 8.17607 11.8926 7.26361 10.5022 7.26361ZM8.44425 25.3764H12.5065V13.1547H8.44425V25.3764Z" fill="#16171B"/>
</g>
<defs>
<clipPath id="clip0">
<rect width="34" height="34" fill="white"/>
</clipPath>
</defs>
</svg>
