<svg width="34" height="34" viewBox="0 0 34 34" fill="none" xmlns="http://www.w3.org/2000/svg">
<g clip-path="url(#clip0)">
<path d="M17.0009 33.9997C26.3896 33.9997 34.0007 26.3886 34.0007 16.9998C34.0007 7.61109 26.3896 0 17.0009 0C7.6121 0 0.00100708 7.61109 0.00100708 16.9998C0.00100708 26.3886 7.6121 33.9997 17.0009 33.9997Z" fill="#B1E7E7"/>
<path d="M27.4132 12.2173C26.6847 12.5403 25.901 12.7588 25.0792 12.8564C25.9183 12.3536 26.5623 11.5582 26.8662 10.6087C26.081 11.0745 25.211 11.4124 24.2858 11.5945C23.5446 10.8051 22.4885 10.3118 21.3191 10.3118C19.0754 10.3118 17.2556 12.1315 17.2556 14.3752C17.2556 14.6937 17.2917 15.0037 17.3614 15.3013C13.9843 15.1319 10.99 13.5143 8.98573 11.0551C8.63602 11.6551 8.43541 12.3536 8.43541 13.0982C8.43541 14.5076 9.15331 15.7519 10.243 16.4804C9.57726 16.4595 8.95027 16.2768 8.40268 15.9716C8.40238 15.9889 8.40238 16.0062 8.40238 16.0231C8.40238 17.992 9.80363 19.6341 11.6622 20.0072C11.3216 20.1005 10.9618 20.1499 10.5918 20.1499C10.3294 20.1499 10.0752 20.1248 9.82727 20.0775C10.3443 21.6915 11.8446 22.8663 13.6231 22.8994C12.2322 23.9894 10.4803 24.6388 8.57602 24.6388C8.24874 24.6388 7.92449 24.6197 7.60721 24.5818C9.40453 25.7352 11.5409 26.4076 13.8356 26.4076C21.3097 26.4076 25.3971 20.216 25.3971 14.8458C25.3971 14.6698 25.3931 14.4943 25.3853 14.3204C26.1798 13.7476 26.8686 13.0321 27.4132 12.2173Z" fill="#16171B"/>
</g>
<defs>
<clipPath id="clip0">
<rect width="34" height="34" fill="white"/>
</clipPath>
</defs>
</svg>
