<svg width="158" height="161" viewBox="0 0 158 161" fill="none" xmlns="http://www.w3.org/2000/svg">
<g filter="url(#filter0_d)">
<path d="M52.4341 68.28C46.5141 68.28 41.1807 67.0533 36.4341 64.6C31.6874 62.0933 27.9541 58.6267 25.2341 54.2C22.5674 49.72 21.2341 44.6533 21.2341 39C21.2341 33.3467 22.5674 28.3067 25.2341 23.88C27.9541 19.4 31.6874 15.9333 36.4341 13.48C41.1807 10.9733 46.5141 9.72 52.4341 9.72C57.8741 9.72 62.7274 10.68 66.9941 12.6C71.2607 14.52 74.7807 17.2933 77.5541 20.92L65.6341 31.56C62.1674 27.1867 58.0874 25 53.3941 25C49.4474 25 46.2741 26.28 43.8741 28.84C41.4741 31.3467 40.2741 34.7333 40.2741 39C40.2741 43.2667 41.4741 46.68 43.8741 49.24C46.2741 51.7467 49.4474 53 53.3941 53C58.0874 53 62.1674 50.8133 65.6341 46.44L77.5541 57.08C74.7807 60.7067 71.2607 63.48 66.9941 65.4C62.7274 67.32 57.8741 68.28 52.4341 68.28ZM117.193 68.28C111.167 68.28 105.753 67.0267 100.953 64.52C96.1534 62.0133 92.3934 58.5467 89.6734 54.12C86.9534 49.64 85.5934 44.6 85.5934 39C85.5934 33.4 86.9534 28.3867 89.6734 23.96C92.3934 19.48 96.1534 15.9867 100.953 13.48C105.753 10.9733 111.167 9.72 117.193 9.72C123.22 9.72 128.633 10.9733 133.433 13.48C138.233 15.9867 141.993 19.48 144.713 23.96C147.433 28.3867 148.793 33.4 148.793 39C148.793 44.6 147.433 49.64 144.713 54.12C141.993 58.5467 138.233 62.0133 133.433 64.52C128.633 67.0267 123.22 68.28 117.193 68.28ZM117.193 53C119.54 53 121.647 52.44 123.513 51.32C125.433 50.1467 126.953 48.52 128.073 46.44C129.193 44.3067 129.753 41.8267 129.753 39C129.753 36.1733 129.193 33.72 128.073 31.64C126.953 29.5067 125.433 27.88 123.513 26.76C121.647 25.5867 119.54 25 117.193 25C114.847 25 112.713 25.5867 110.793 26.76C108.927 27.88 107.433 29.5067 106.313 31.64C105.193 33.72 104.633 36.1733 104.633 39C104.633 41.8267 105.193 44.3067 106.313 46.44C107.433 48.52 108.927 50.1467 110.793 51.32C112.713 52.44 114.847 53 117.193 53ZM26.5991 84H54.1991C60.4391 84 65.9324 85.1467 70.6791 87.44C75.4791 89.68 79.1857 92.9067 81.7991 97.12C84.4657 101.333 85.7991 106.293 85.7991 112C85.7991 117.707 84.4657 122.667 81.7991 126.88C79.1857 131.093 75.4791 134.347 70.6791 136.64C65.9324 138.88 60.4391 140 54.1991 140H26.5991V84ZM53.3991 125.28C57.4524 125.28 60.6791 124.133 63.0791 121.84C65.5324 119.493 66.7591 116.213 66.7591 112C66.7591 107.787 65.5324 104.533 63.0791 102.24C60.6791 99.8933 57.4524 98.72 53.3991 98.72H45.4791V125.28H53.3991ZM145.253 125.76V140H98.6928V84H144.213V98.24H117.253V104.8H140.933V118.4H117.253V125.76H145.253Z" fill="#B2D1DC"/>
</g>
<defs>
<filter id="filter0_d" x="0.23407" y="0.720001" width="157.559" height="160.28" filterUnits="userSpaceOnUse" color-interpolation-filters="sRGB">
<feFlood flood-opacity="0" result="BackgroundImageFix"/>
<feColorMatrix in="SourceAlpha" type="matrix" values="0 0 0 0 0 0 0 0 0 0 0 0 0 0 0 0 0 0 127 0"/>
<feOffset dx="-6" dy="6"/>
<feGaussianBlur stdDeviation="7.5"/>
<feColorMatrix type="matrix" values="0 0 0 0 0 0 0 0 0 0 0 0 0 0 0 0 0 0 1 0"/>
<feBlend mode="normal" in2="BackgroundImageFix" result="effect1_dropShadow"/>
<feBlend mode="normal" in="SourceGraphic" in2="effect1_dropShadow" result="shape"/>
</filter>
</defs>
</svg>

