<svg width="394" height="394" viewBox="0 0 394 394" fill="none" xmlns="http://www.w3.org/2000/svg">
<g clip-path="url(#clip0)">
<path d="M366.037 230.452C366.037 226.689 362.988 223.636 359.221 223.636C355.454 223.636 352.409 226.689 352.409 230.452C352.409 275.782 321.179 314.171 277.448 323.65V302.824C312.678 293.723 338.777 261.67 338.777 223.636V121.418C338.777 76.3259 302.095 39.6408 257.003 39.6408C211.907 39.6408 175.226 76.3259 175.226 121.418V223.636C175.226 261.67 201.328 293.723 236.559 302.824V323.65C192.82 314.171 161.598 275.789 161.598 230.448C161.598 226.685 158.548 223.636 154.782 223.636C151.015 223.636 147.97 226.685 147.97 230.448C147.97 283.265 185.048 327.811 236.559 337.544V353.114H209.299C190.515 353.114 175.226 368.399 175.226 387.186C175.226 390.949 178.275 393.998 182.042 393.998H331.964C335.731 393.998 338.777 390.949 338.777 387.186C338.777 368.399 323.491 353.114 304.704 353.114H277.448V337.54C328.954 327.807 366.037 283.253 366.037 230.452V230.452ZM189.197 230.452H222.931C226.697 230.452 229.747 227.399 229.747 223.636C229.747 219.873 226.697 216.823 222.931 216.823H188.858V196.379H222.931C226.697 196.379 229.747 193.326 229.747 189.563C229.747 185.8 226.697 182.747 222.931 182.747H188.858V162.307H222.931C226.697 162.307 229.747 159.253 229.747 155.491C229.747 151.728 226.697 148.675 222.931 148.675H188.858V128.23H222.931C226.697 128.23 229.747 125.181 229.747 121.418C229.747 117.655 226.697 114.602 222.931 114.602H189.197C192.629 80.2136 221.73 53.2729 257.003 53.2729C292.277 53.2729 321.378 80.2136 324.809 114.602H291.076C287.309 114.602 284.26 117.655 284.26 121.418C284.26 125.181 287.309 128.23 291.076 128.23H325.148V148.675H291.076C287.309 148.675 284.26 151.728 284.26 155.491C284.26 159.253 287.309 162.307 291.076 162.307H325.148V182.747H291.076C287.309 182.747 284.26 185.8 284.26 189.563C284.26 193.326 287.309 196.379 291.076 196.379H325.148V216.823H291.076C287.309 216.823 284.26 219.873 284.26 223.636C284.26 227.399 287.309 230.452 291.076 230.452H324.809C321.787 260.757 298.82 285.261 269.267 290.658H269.255C265.274 291.383 261.187 291.781 257.003 291.781C221.73 291.781 192.629 264.84 189.197 230.452ZM304.704 366.742C313.591 366.742 321.167 372.439 323.982 380.374H190.02C192.835 372.439 200.416 366.742 209.299 366.742H243.371C247.138 366.742 250.187 363.693 250.187 359.93V305.105C252.433 305.292 254.703 305.413 256.999 305.413C259.296 305.413 261.565 305.292 263.815 305.105V359.93C263.815 363.693 266.865 366.742 270.631 366.742H304.704Z" fill="white"/>
<path d="M322.22 40.4636C328.081 42.1949 333.076 45.599 336.675 50.3094C340.309 55.0666 342.286 60.8416 342.38 67.0065C342.438 70.7342 345.48 73.7172 349.196 73.7172H349.301C353.06 73.6588 356.066 70.5588 356.008 66.7959C355.867 57.6909 352.927 49.1318 347.511 42.0389C342.142 35.0123 334.725 29.947 326.08 27.3968C322.477 26.3362 318.687 28.399 317.615 32.002C316.55 35.6089 318.613 39.399 322.22 40.4636Z" fill="white"/>
<path d="M369.25 25.4199C359.654 12.8718 345.905 3.91105 330.537 0.187165C326.884 -0.68239 323.199 1.54804 322.313 5.20953C321.428 8.86712 323.678 12.552 327.332 13.4372C339.857 16.467 350.603 23.4702 358.418 33.6943C365.748 43.2867 369.675 54.7898 369.784 66.9597C369.815 70.7031 372.857 73.7134 376.596 73.7134H376.655C380.418 73.6822 383.444 70.6056 383.412 66.8388C383.28 51.6976 378.382 37.3753 369.25 25.4199Z" fill="white"/>
<path d="M118.233 7.56474L98.1514 27.6581C95.4882 30.3175 95.4882 34.634 98.1514 37.2934C99.4811 38.6231 101.224 39.2899 102.967 39.2899C104.71 39.2899 106.457 38.6231 107.787 37.2934L127.872 17.2C130.532 14.5407 130.532 10.2241 127.872 7.56474C125.209 4.90538 120.896 4.90538 118.233 7.56474Z" fill="white"/>
<path d="M78.058 47.7437L57.9686 67.837C55.3053 70.4964 55.3053 74.8091 57.9686 77.4723C59.2983 78.802 61.0413 79.4688 62.7843 79.4688C64.5273 79.4688 66.2742 78.802 67.6039 77.4723L87.6933 57.379C90.3566 54.7196 90.3566 50.4069 87.6933 47.7437C85.034 45.0843 80.7213 45.0843 78.058 47.7437Z" fill="white"/>
<path d="M67.6039 7.56474C64.9445 4.90538 60.6279 4.90538 57.9686 7.56474C55.3053 10.228 55.3053 14.5407 57.9686 17.2L78.058 37.2934C79.3916 38.6231 81.1346 39.2899 82.8776 39.2899C84.6206 39.2899 86.3637 38.6231 87.6933 37.2934C90.3566 34.6301 90.3566 30.3175 87.6933 27.6581L67.6039 7.56474Z" fill="white"/>
<path d="M107.787 47.7437C105.123 45.0843 100.811 45.0843 98.1514 47.7437C95.4882 50.403 95.4882 54.7196 98.1514 57.379L118.233 77.4723C119.567 78.802 121.31 79.4688 123.053 79.4688C124.796 79.4688 126.539 78.802 127.872 77.4723C130.532 74.813 130.532 70.4964 127.872 67.837L107.787 47.7437Z" fill="white"/>
<path d="M38.9358 203.191C23.8999 203.191 11.6755 215.42 11.6755 230.452C11.6755 245.48 23.8999 257.708 38.9358 257.708C53.9679 257.708 66.1923 245.48 66.1923 230.452C66.1923 215.42 53.9679 203.191 38.9358 203.191ZM38.9358 244.08C31.4218 244.08 25.3037 237.966 25.3037 230.452C25.3037 222.934 31.4218 216.823 38.9358 216.823C46.446 216.823 52.5641 222.934 52.5641 230.452C52.5641 237.966 46.446 244.08 38.9358 244.08Z" fill="white"/>
<path d="M113.897 152.083C113.897 157.729 109.319 162.307 103.673 162.307C98.0266 162.307 93.4527 157.729 93.4527 152.083C93.4527 146.436 98.0266 141.862 103.673 141.862C109.319 141.862 113.897 146.436 113.897 152.083Z" fill="white"/>
</g>
<defs>
<clipPath id="clip0">
<rect width="394" height="394" fill="white"/>
</clipPath>
</defs>
</svg>